<svg xmlns="http://www.w3.org/2000/svg" width="820" height="300" role="img" aria-label="BioASQ question type counts"><rect width="100%" height="100%" fill="white"/><text x="10" y="24" font-size="18" font-weight="bold">BioASQ question types</text><text x="10" y="61" font-size="14">factoid</text><rect x="110" y="45" width="600.0" height="18" fill="#08765d" rx="3"/><text x="720.0" y="59" font-size="12">dev 1515</text><rect x="110" y="67" width="33.7" height="18" fill="#e6a426" rx="3"/><text x="153.7" y="81" font-size="12">eval 85</text><text x="10" y="121" font-size="14">yesno</text><rect x="110" y="105" width="537.4" height="18" fill="#08765d" rx="3"/><text x="657.4" y="119" font-size="12">dev 1357</text><rect x="110" y="127" width="40.4" height="18" fill="#e6a426" rx="3"/><text x="160.4" y="141" font-size="12">eval 102</text><text x="10" y="181" font-size="14">list</text><rect x="110" y="165" width="383.0" height="18" fill="#08765d" rx="3"/><text x="503.0" y="179" font-size="12">dev 967</text><rect x="110" y="187" width="31.7" height="18" fill="#e6a426" rx="3"/><text x="151.7" y="201" font-size="12">eval 80</text><text x="10" y="241" font-size="14">summary</text><rect x="110" y="225" width="479.2" height="18" fill="#08765d" rx="3"/><text x="599.2" y="239" font-size="12">dev 1210</text><rect x="110" y="247" width="28.9" height="18" fill="#e6a426" rx="3"/><text x="148.9" y="261" font-size="12">eval 73</text></svg>